<svg width="128" height="128" viewBox="0 0 128 128" fill="none" xmlns="http://www.w3.org/2000/svg">
<path d="M124.594 69.628C126.304 68.1116 127.354 65.9315 127.505 63.5888C127.509 63.5314 127.488 63.4752 127.449 63.4345C127.417 63.3999 127.397 63.3551 127.393 63.3064C126.825 56.243 109.106 46.9901 105.53 45.1106C90.5859 37.516 74.2417 33.4532 57.6437 33.205C57.2248 33.205 56.8391 32.9821 56.6058 32.6165C47.764 18.762 23.6109 8.26469 11.9992 11.6344C9.6706 12.1435 7.60577 13.5513 6.21522 15.5801C4.82433 17.6093 4.20717 20.1128 4.48495 22.5968C4.84246 25.3717 5.59901 28.0742 6.72849 30.6118C7.41101 32.2547 8.00031 33.9383 8.49329 35.6534C8.78216 36.6584 8.23618 37.706 7.28855 38.038L3.69981 39.2167C2.65568 39.4675 1.72247 40.0798 1.0506 40.9569C0.378616 41.8342 0.00861134 42.9236 0 44.0492L2.13483e-06 83.8901C0.00861343 85.0156 0.378614 86.1051 1.0506 86.9824C1.72258 87.8597 2.65583 88.4722 3.70017 88.723L7.28933 89.9021L9.19501 90.4914C8.60831 92.9545 7.81967 95.36 6.84107 97.6809C5.71145 100.218 4.95506 102.921 4.59753 105.696C4.2283 108.679 5.17869 111.676 7.17671 113.83C8.55979 115.208 10.2604 116.183 12.1113 116.658C23.7784 119.898 47.5447 109.512 56.4797 95.7537C56.7944 95.2691 57.3085 94.9701 57.8667 94.9702C90.054 95.3238 117.192 77.6433 124.594 69.628ZM70.4275 79.1757C66.639 79.1847 63.0014 77.6091 60.3181 74.7972C57.6349 71.9853 56.1251 68.167 56.1218 64.1842C56.1195 60.2023 57.6238 56.3816 60.3031 53.5655C62.9824 50.7495 66.6177 49.1684 70.4062 49.1708C74.1963 49.1733 77.8293 50.7602 80.5046 53.5805C83.18 56.4006 84.6788 60.2238 84.6703 64.2059C84.6625 68.1738 83.1583 71.9765 80.4892 74.7819C77.8201 77.5872 74.203 79.1674 70.4275 79.1757Z" fill="white"/>
</svg>
